<?xml version="1.0" encoding="utf-8"?>
<!-- Generator: Adobe Illustrator 22.1.0, SVG Export Plug-In . SVG Version: 6.00 Build 0)  -->
<svg version="1.1" id="Ñëîé_1" xmlns="http://www.w3.org/2000/svg" xmlns:xlink="http://www.w3.org/1999/xlink" x="0px" y="0px"
	 viewBox="0 0 1600 338.9" style="enable-background:new 0 0 1600 338.9;" xml:space="preserve">
<style type="text/css">
	.st0{fill:#FFFFFF;}
</style>
<path class="st0" d="M1599.9,292c-51.9,6.6-100.7,17-147.9,29.5c-21,5.5-42.1,11-65.4,13.9c-32.1,3.9-63.8,3.3-95.1-1.9
	c-18.5-3.1-35.3-7.9-51.8-13.1c-15-4.7-30.1-9.4-45.3-13.9c-22.3-6.6-46.7-9.9-72.3-11c-21.6-1-43.2-1.4-64.9-0.5
	c-20.3,0.8-40.5,2.2-60.7,3.5c-39.2,2.6-78.3,5.6-117.8,6c-24.7,0.3-49.2-0.5-73.1-3.9c-29-4.1-50.6-13.2-68.1-25.2
	c-12.2-8.4-23.3-17.1-36.1-25.2c-20.4-12.8-45.6-22.4-75.9-28.6c-28.2-5.8-57.5-8.5-87.8-9.2c-32.7-0.8-65.2,0.6-97.8,1.6
	c-23,0.8-46,1.5-69.1,2.2c-24.7,0.8-49.5,1.1-74.2,1.3c-27.3,0.3-53.1-2.9-78.3-7.7c-36.7-6.9-72-15.6-108.4-22.9
	c-35.3-7.1-71.2-12.9-108.1-17.2c-0.6-0.1-1.2-0.1-1.7-0.1c0,72,0,95.5-0.1,167.5c0,1.5,0.4,2,3.8,2c530.8,0,1061.6,0,1592.4,0
	c3.3,0,3.8-0.4,3.8-1.9C1599.9,305.8,1599.9,323.2,1599.9,292L1599.9,292z"/>
</svg>
