<svg id="Ñëîé_1" data-name="Ñëîé 1" xmlns="http://www.w3.org/2000/svg" viewBox="0 0 1600 169.5"><defs><style>.cls-1{fill:#f8e9e9;}</style></defs><title>wave</title><path class="cls-1" d="M1599.9,292c-51.9,6.6-100.7,17-147.9,29.5-21,5.5-42.1,11-65.4,13.9a332.6,332.6,0,0,1-95.1-1.9c-18.5-3.1-35.3-7.9-51.8-13.1-15-4.7-30.1-9.4-45.3-13.9-22.3-6.6-46.7-9.9-72.3-11-21.6-1-43.2-1.4-64.9-.5-20.3.8-40.5,2.2-60.7,3.5-39.2,2.6-78.3,5.6-117.8,6-24.7.3-49.2-.5-73.1-3.9-29-4.1-50.6-13.2-68.1-25.2-12.2-8.4-23.3-17.1-36.1-25.2-20.4-12.8-45.6-22.4-75.9-28.6-28.2-5.8-57.5-8.5-87.8-9.2-32.7-.8-65.2.6-97.8,1.6q-34.5,1.2-69.1,2.2c-24.7.8-49.5,1.1-74.2,1.3-27.3.3-53.1-2.9-78.3-7.7-36.7-6.9-72-15.6-108.4-22.9C74.6,179.8,38.7,174,1.8,169.7a10.28,10.28,0,0,0-1.7-.1c0,72,0,95.5-.1,167.5,0,1.5.4,2,3.8,2H1596.2c3.3,0,3.8-.4,3.8-1.9-.1-31.4-.1-14-.1-45.2Z" transform="translate(0 -169.6)"/></svg>